{
    "asset" : {
        "generator" : "Khronos glTF Blender I/O v1.1.46",
        "version" : "2.0"
    },
    "scene" : 0,
    "scenes" : [
        {
            "name" : "Scene",
            "nodes" : [
                0,
                1
            ]
        }
    ],
    "nodes" : [
        {
            "mesh" : 0,
            "name" : "Vader",
            "rotation" : [
                -0.0004506439436227083,
                -0.7071396708488464,
                0.7070736289024353,
                -0.00045068602776154876
            ],
            "scale" : [
                0.10000002384185791,
                0.10000002384185791,
                0.10000002384185791
            ],
            "translation" : [
                0,
                1.1652477979660034,
                0
            ]
        },
        {
            "mesh" : 1,
            "name" : "12179_Hat_v1_l2",
            "rotation" : [
                -0.23537516593933105,
                -0.791660487651825,
                0.5532136559486389,
                -0.10875126719474792
            ],
            "scale" : [
                0.7408244013786316,
                0.7408244609832764,
                0.740824282169342
            ],
            "translation" : [
                2.640148878097534,
                2.703427791595459,
                -5.979578495025635
            ]
        }
    ],
    "materials" : [
        {
            "doubleSided" : true,
            "emissiveFactor" : [
                0,
                0,
                0
            ],
            "name" : "Material.001",
            "pbrMetallicRoughness" : {
                "baseColorFactor" : [
                    0.08897963911294937,
                    0.08897963911294937,
                    0.08897963911294937,
                    1
                ],
                "metallicFactor" : 0,
                "roughnessFactor" : 0.5
            }
        },
        {
            "doubleSided" : true,
            "emissiveFactor" : [
                0,
                0,
                0
            ],
            "name" : "12179_Hat_decoration",
            "pbrMetallicRoughness" : {
                "baseColorFactor" : [
                    0.7490000128746033,
                    0,
                    0,
                    1
                ],
                "metallicFactor" : 0,
                "roughnessFactor" : 0.850928783416748
            }
        },
        {
            "doubleSided" : true,
            "emissiveFactor" : [
                0,
                0,
                0
            ],
            "name" : "12179_Hat",
            "pbrMetallicRoughness" : {
                "baseColorTexture" : {
                    "index" : 0,
                    "texCoord" : 0
                },
                "metallicFactor" : 0,
                "roughnessFactor" : 0.7642977237701416
            }
        }
    ],
    "meshes" : [
        {
            "name" : "Vader",
            "primitives" : [
                {
                    "attributes" : {
                        "POSITION" : 0,
                        "NORMAL" : 1
                    },
                    "indices" : 2,
                    "material" : 0
                }
            ]
        },
        {
            "name" : "12179_Hat_v1_l2",
            "primitives" : [
                {
                    "attributes" : {
                        "POSITION" : 3,
                        "NORMAL" : 4,
                        "TEXCOORD_0" : 5
                    },
                    "indices" : 6,
                    "material" : 1
                },
                {
                    "attributes" : {
                        "POSITION" : 7,
                        "NORMAL" : 8,
                        "TEXCOORD_0" : 9
                    },
                    "indices" : 10,
                    "material" : 2
                }
            ]
        }
    ],
    "textures" : [
        {
            "source" : 0
        }
    ],
    "images" : [
        {
            "bufferView" : 11,
            "mimeType" : "image/jpeg",
            "name" : "12179_Hat_diffuse"
        }
    ],
    "accessors" : [
        {
            "bufferView" : 0,
            "componentType" : 5126,
            "count" : 27507,
            "max" : [
                39.24565887451172,
                47.40401840209961,
                12.121452331542969
            ],
            "min" : [
                -39.90291213989258,
                -28.078649520874023,
                -38.706756591796875
            ],
            "type" : "VEC3"
        },
        {
            "bufferView" : 1,
            "componentType" : 5126,
            "count" : 27507,
            "type" : "VEC3"
        },
        {
            "bufferView" : 2,
            "componentType" : 5123,
            "count" : 27819,
            "type" : "SCALAR"
        },
        {
            "bufferView" : 3,
            "componentType" : 5126,
            "count" : 34689,
            "max" : [
                2.6738998889923096,
                4.264999866485596,
                2.685499906539917
            ],
            "min" : [
                -2.6614999771118164,
                -4.27209997177124,
                -2.687299966812134
            ],
            "type" : "VEC3"
        },
        {
            "bufferView" : 4,
            "componentType" : 5126,
            "count" : 34689,
            "type" : "VEC3"
        },
        {
            "bufferView" : 5,
            "componentType" : 5126,
            "count" : 34689,
            "type" : "VEC2"
        },
        {
            "bufferView" : 6,
            "componentType" : 5123,
            "count" : 99072,
            "type" : "SCALAR"
        },
        {
            "bufferView" : 7,
            "componentType" : 5126,
            "count" : 1690,
            "max" : [
                1.8813999891281128,
                4.09119987487793,
                1.8659000396728516
            ],
            "min" : [
                -1.8731000423431396,
                -3.4677999019622803,
                -1.8885999917984009
            ],
            "type" : "VEC3"
        },
        {
            "bufferView" : 8,
            "componentType" : 5126,
            "count" : 1690,
            "type" : "VEC3"
        },
        {
            "bufferView" : 9,
            "componentType" : 5126,
            "count" : 1690,
            "type" : "VEC2"
        },
        {
            "bufferView" : 10,
            "componentType" : 5123,
            "count" : 9216,
            "type" : "SCALAR"
        }
    ],
    "bufferViews" : [
        {
            "buffer" : 0,
            "byteLength" : 330084,
            "byteOffset" : 0
        },
        {
            "buffer" : 0,
            "byteLength" : 330084,
            "byteOffset" : 330084
        },
        {
            "buffer" : 0,
            "byteLength" : 55638,
            "byteOffset" : 660168
        },
        {
            "buffer" : 0,
            "byteLength" : 416268,
            "byteOffset" : 715808
        },
        {
            "buffer" : 0,
            "byteLength" : 416268,
            "byteOffset" : 1132076
        },
        {
            "buffer" : 0,
            "byteLength" : 277512,
            "byteOffset" : 1548344
        },
        {
            "buffer" : 0,
            "byteLength" : 198144,
            "byteOffset" : 1825856
        },
        {
            "buffer" : 0,
            "byteLength" : 20280,
            "byteOffset" : 2024000
        },
        {
            "buffer" : 0,
            "byteLength" : 20280,
            "byteOffset" : 2044280
        },
        {
            "buffer" : 0,
            "byteLength" : 13520,
            "byteOffset" : 2064560
        },
        {
            "buffer" : 0,
            "byteLength" : 18432,
            "byteOffset" : 2078080
        },
        {
            "buffer" : 0,
            "byteLength" : 478525,
            "byteOffset" : 2096512
        }
    ],
    "buffers" : [
        {
            "byteLength" : 2575040,
            "uri" : "data:application/octet-stream;base64,"
        }
    ]
}
