{
	"accessors" : 
	[
		{
			"bufferView" : 2,
			"byteOffset" : 0,
			"componentType" : 5126,
			"count" : 9996,
			"max" : 
			[
				0.9075471758842468,
				0.5542271137237549,
				0.06575388461351395,
				1
			],
			"min" : 
			[
				0.2631747424602509,
				0.05284162983298302,
				0.0328759141266346,
				1
			],
			"name" : "accessor_color_m0-PolyPaper9_-327558",
			"type" : "VEC4"
		},
		{
			"bufferView" : 2,
			"byteOffset" : 159936,
			"componentType" : 5126,
			"count" : 9826,
			"max" : 
			[
				0.9075471758842468,
				0.5542271137237549,
				0.06575388461351395,
				1
			],
			"min" : 
			[
				0.2631747424602509,
				0.05284162983298302,
				0.0328759141266346,
				1
			],
			"name" : "accessor_color_m1-PolyPaper9_-327510",
			"type" : "VEC4"
		},
		{
			"bufferView" : 2,
			"byteOffset" : 317152,
			"componentType" : 5126,
			"count" : 446,
			"max" : 
			[
				0.2631747424602509,
				0.5542271137237549,
				0.06575388461351395,
				1
			],
			"min" : 
			[
				0.2631747424602509,
				0.5542271137237549,
				0.06575388461351395,
				1
			],
			"name" : "accessor_color_m2-PolyPaper9_-327562",
			"type" : "VEC4"
		},
		{
			"bufferView" : 0,
			"byteOffset" : 0,
			"componentType" : 5123,
			"count" : 11184,
			"max" : 
			[
				9995
			],
			"min" : 
			[
				0
			],
			"name" : "accessor_indices_0_m0-PolyPaper9_-327558",
			"type" : "SCALAR"
		},
		{
			"bufferView" : 0,
			"byteOffset" : 22368,
			"componentType" : 5123,
			"count" : 11196,
			"max" : 
			[
				9825
			],
			"min" : 
			[
				0
			],
			"name" : "accessor_indices_0_m1-PolyPaper9_-327510",
			"type" : "SCALAR"
		},
		{
			"bufferView" : 0,
			"byteOffset" : 44760,
			"componentType" : 5123,
			"count" : 540,
			"max" : 
			[
				445
			],
			"min" : 
			[
				0
			],
			"name" : "accessor_indices_0_m2-PolyPaper9_-327562",
			"type" : "SCALAR"
		},
		{
			"bufferView" : 1,
			"byteOffset" : 119952,
			"componentType" : 5126,
			"count" : 9996,
			"max" : 
			[
				0.9989405,
				0.9998288,
				0.9994493
			],
			"min" : 
			[
				-0.9996661999999999,
				-0.9997599,
				-0.9989285
			],
			"name" : "accessor_normal_m0-PolyPaper9_-327558",
			"type" : "VEC3"
		},
		{
			"bufferView" : 1,
			"byteOffset" : 357816,
			"componentType" : 5126,
			"count" : 9826,
			"max" : 
			[
				0.9997101,
				0.9988167999999999,
				0.9995176
			],
			"min" : 
			[
				-0.9997972000000001,
				-0.9991504,
				-0.9999231
			],
			"name" : "accessor_normal_m1-PolyPaper9_-327510",
			"type" : "VEC3"
		},
		{
			"bufferView" : 1,
			"byteOffset" : 481080,
			"componentType" : 5126,
			"count" : 446,
			"max" : 
			[
				0.9577946000000001,
				0.9822888,
				0.9470168
			],
			"min" : 
			[
				-0.9743222,
				-0.9822888,
				-0.965818
			],
			"name" : "accessor_normal_m2-PolyPaper9_-327562",
			"type" : "VEC3"
		},
		{
			"bufferView" : 1,
			"byteOffset" : 0,
			"componentType" : 5126,
			"count" : 9996,
			"max" : 
			[
				1.747476,
				2.573256,
				0.7312077
			],
			"min" : 
			[
				-0.715021,
				-0.4123854,
				-1.61476
			],
			"name" : "accessor_position_m0-PolyPaper9_-327558",
			"type" : "VEC3"
		},
		{
			"bufferView" : 1,
			"byteOffset" : 239904,
			"componentType" : 5126,
			"count" : 9826,
			"max" : 
			[
				1.378507,
				2.528744,
				0.9218884000000001
			],
			"min" : 
			[
				-0.5727976,
				-0.469105,
				-0.7557815
			],
			"name" : "accessor_position_m1-PolyPaper9_-327510",
			"type" : "VEC3"
		},
		{
			"bufferView" : 1,
			"byteOffset" : 475728,
			"componentType" : 5126,
			"count" : 446,
			"max" : 
			[
				0.4848426,
				1.829813,
				-0.9962704999999999
			],
			"min" : 
			[
				0.2126124,
				1.033409,
				-1.490419
			],
			"name" : "accessor_position_m2-PolyPaper9_-327562",
			"type" : "VEC3"
		}
	],
	"asset" : 
	{
		"copyright" : "Unknown",
		"generator" : "glTF 1-to-2 Upgrader for Google Blocks",
		"version" : "2.0"
	},
	"bufferViews" : 
	[
		{
			"buffer" : 0,
			"byteLength" : 45840,
			"byteOffset" : 0,
			"name" : "ushortBufferView",
			"target" : 34963
		},
		{
			"buffer" : 0,
			"byteLength" : 486432,
			"byteOffset" : 45840,
			"byteStride" : 12,
			"name" : "vec3BufferView",
			"target" : 34962
		},
		{
			"buffer" : 0,
			"byteLength" : 324288,
			"byteOffset" : 532272,
			"byteStride" : 16,
			"name" : "vec4BufferView",
			"target" : 34962
		}
	],
	"buffers" : 
	[
		{
			"byteLength" : 856560,
			"name" : "model",
			"uri" : "model.bin"
		}
	],
	"materials" : 
	[
		{
			"alphaMode" : "OPAQUE",
			"doubleSided" : false,
			"name" : "BlocksPaper",
			"pbrMetallicRoughness" : 
			{
				"baseColorFactor" : 
				[
					1,
					1,
					1,
					1
				],
				"metallicFactor" : 0,
				"roughnessFactor" : 0.6
			}
		},
		{
			"alphaMode" : "BLEND",
			"doubleSided" : false,
			"name" : "BlocksGlass",
			"pbrMetallicRoughness" : 
			{
				"baseColorFactor" : 
				[
					0.2,
					0.2,
					1,
					0.3
				],
				"metallicFactor" : 1,
				"roughnessFactor" : 0.4
			}
		},
		{
			"alphaMode" : "OPAQUE",
			"doubleSided" : true,
			"name" : "BlocksGem",
			"pbrMetallicRoughness" : 
			{
				"baseColorFactor" : 
				[
					1,
					0.4,
					1,
					1
				],
				"metallicFactor" : 0,
				"roughnessFactor" : 0.1
			}
		}
	],
	"meshes" : 
	[
		{
			"name" : "mesh_m0-PolyPaper9_-327558",
			"primitives" : 
			[
				{
					"attributes" : 
					{
						"COLOR_0" : 0,
						"NORMAL" : 6,
						"POSITION" : 9
					},
					"indices" : 3,
					"material" : 0,
					"mode" : 4
				}
			]
		},
		{
			"name" : "mesh_m1-PolyPaper9_-327510",
			"primitives" : 
			[
				{
					"attributes" : 
					{
						"COLOR_0" : 1,
						"NORMAL" : 7,
						"POSITION" : 10
					},
					"indices" : 4,
					"material" : 0,
					"mode" : 4
				}
			]
		},
		{
			"name" : "mesh_m2-PolyPaper9_-327562",
			"primitives" : 
			[
				{
					"attributes" : 
					{
						"COLOR_0" : 2,
						"NORMAL" : 8,
						"POSITION" : 11
					},
					"indices" : 5,
					"material" : 0,
					"mode" : 4
				}
			]
		}
	],
	"nodes" : 
	[
		{
			"matrix" : 
			[
				1,
				0,
				0,
				0,
				0,
				1,
				0,
				0,
				0,
				0,
				1,
				0,
				0,
				0,
				0,
				1
			],
			"mesh" : 0,
			"name" : "node_MeshObject-1422537664-PolyPaper9"
		},
		{
			"matrix" : 
			[
				1,
				0,
				0,
				0,
				0,
				1,
				0,
				0,
				0,
				0,
				1,
				0,
				0,
				0,
				0,
				1
			],
			"mesh" : 1,
			"name" : "node_MeshObject1316269440-PolyPaper9"
		},
		{
			"matrix" : 
			[
				1,
				0,
				0,
				0,
				0,
				1,
				0,
				0,
				0,
				0,
				1,
				0,
				0,
				0,
				0,
				1
			],
			"mesh" : 2,
			"name" : "node_MeshObject1390298880-PolyPaper9"
		}
	],
	"scene" : 0,
	"scenes" : 
	[
		{
			"extras" : {},
			"name" : "defaultScene",
			"nodes" : 
			[
				0,
				1,
				2
			]
		}
	]
}